<?xml version="1.0" encoding="utf-8"?>
<!-- Generator: Adobe Illustrator 26.4.1, SVG Export Plug-In . SVG Version: 6.00 Build 0)  -->
<svg version="1.1" id="katman_1" xmlns="http://www.w3.org/2000/svg" xmlns:xlink="http://www.w3.org/1999/xlink" x="0px" y="0px"
	 viewBox="0 0 251.4 174" style="enable-background:new 0 0 251.4 174;" xml:space="preserve">
<style type="text/css">
	.st0{fill-rule:evenodd;clip-rule:evenodd;fill:#193F78;}
	.st1{fill:#193F78;}
</style>
<g>
	<g>
		<path class="st0" d="M90.5,76.2c0-2.6-0.5-4.8-1.3-6.4c-0.8-1.7-1.8-2.9-2.9-3.9c-1.1-0.9-2-1.6-2.8-2.1c0.6-0.4,1.4-1.1,2.4-2
			c1-1,1.8-2.2,2.6-3.7c0.8-1.5,1.2-3.4,1.2-5.5c0-5-1.6-8.9-4.6-11.9c-3.1-3-7.6-4.5-13.5-4.5H48V93h24.8c5.2,0,9.4-1.5,12.7-4.3
			C88.7,85.8,90.4,81.6,90.5,76.2z M76.5,75.4c0,1.3-0.3,2.4-1.1,3.4c-0.8,1-2.1,1.6-4,1.6H62v-10h9.4c1.9,0.1,3.2,0.6,4,1.6
			C76.2,73,76.5,74.1,76.5,75.4z M75.7,53.3c0,1.2-0.3,2.2-1.1,3.1c-0.8,0.9-2.1,1.4-4,1.5h-8.7v-9.2h8.7c1.9,0,3.2,0.5,4,1.5
			C75.4,51.1,75.7,52.1,75.7,53.3z"/>
	</g>
	<g>
		<path class="st1" d="M116.4,57.9l-0.6,0c-0.2,0,0.3,0,0,0l-11.3,0c0,1.3-0.5,38-0.5,41.2c0,19.5,0,19.5-0.1,29.3
			c0,1.2,0,3.1,0,6.8c-8.8-9.7-20.1-21.5-29.1-31.2c-3.6-0.1-3.6-0.1-5.4-0.1c-21.7,0-4.3,0-26,0c-1.8,0-5.3,0-8.9-0.1
			c-0.1-11.7,0.2-24.9,0.2-36.7c0-14.6-0.1-28.6,0-43.1c2.2,0,5.1,0,6.3,0c32.7,0,26.7,0,59.4,0c1.1,0,1.1,0,3.3,0
			c0,1.4,0,1.4,0,4.5c2.7,0.1,5.3,0,7.6,0c1.6,0,2.6,0,4-0.1c0-8.7,0-10.9,0-15.3c-42.1-0.2-46.8,0-88.8-0.1c-0.8,0-0.8,0-3.7,0
			c-0.1,1.9,0,6.2,0,7c0,32,0,33.2,0,65.2c0,0,0,7.6,0,7.8c0,0.2,0,7.1,0,7.3c0,0,0,7.1,0,7.1c0,1.4,0,7,0,8.8
			c0.4,0,12.3,0.2,13.6,0.2c0.5,0,0,0,1.4,0c25.1,0.1,6,0.1,31.1,0c3.2,0,3.8,0,3.8,0c11.2,11.4,23.5,24.3,34.9,36.2
			c2.9,3,3.8,3.7,7.8,8.4c0-18,0.4-70.4,0.4-95.4h11.5v31h10.1v-31h6v-7.8C143.3,57.9,116.4,57.9,116.4,57.9z"/>
		<path class="st1" d="M151.9,77.2h-9.1v-2.1c0-2.5,0.3-4.3,0.9-5.7s1.7-2.5,3.4-3.5s3.9-1.5,6.6-1.5c3.3,0,5.7,0.6,7.4,1.7
			c1.7,1.2,2.7,2.6,3,4.3s0.5,5.2,0.5,10.4v15.9h-9.4v-2.8c-0.6,1.1-1.4,2-2.3,2.6c-0.9,0.6-2.1,0.8-3.3,0.8c-1.7,0-3.2-0.5-4.6-1.4
			c-1.4-0.9-2.1-3-2.1-6.2V87c0-2.4,0.4-4,1.1-4.9s2.6-1.9,5.6-3c3.2-1.2,4.9-2.1,5.1-2.5c0.2-0.4,0.3-1.3,0.3-2.6
			c0-1.7-0.1-2.7-0.4-3.2s-0.7-0.8-1.2-0.8c-0.6,0-1.1,0.2-1.2,0.6s-0.2,1.5-0.2,3.3L151.9,77.2L151.9,77.2z M154.9,81.6
			c-1.6,1.1-2.4,2.1-2.7,2.8s-0.4,1.9-0.4,3.3c0,1.6,0.1,2.7,0.3,3.2c0.2,0.5,0.6,0.7,1.3,0.7c0.6,0,1-0.2,1.2-0.6
			c0.2-0.4,0.3-1.4,0.3-3L154.9,81.6L154.9,81.6z"/>
		<path class="st1" d="M177.9,57.9v38.7h-9.9V57.9H177.9z"/>
		<path class="st1" d="M203.2,81.3h-12.5v6.9c0,1.4,0.1,2.4,0.3,2.8c0.2,0.4,0.6,0.6,1.2,0.6c0.7,0,1.2-0.3,1.5-0.8
			c0.2-0.6,0.4-1.6,0.4-3.2v-4.2h9.2v2.3c0,2-0.1,3.5-0.4,4.5c-0.2,1.1-0.8,2.2-1.7,3.4c-0.9,1.2-2.1,2.1-3.5,2.7
			c-1.4,0.6-3.1,0.9-5.2,0.9c-2,0-3.8-0.3-5.4-0.9c-1.6-0.6-2.8-1.4-3.6-2.4s-1.5-2.2-1.8-3.4c-0.3-1.2-0.5-3-0.5-5.4v-9.3
			c0-2.8,0.4-5,1.1-6.6c0.8-1.6,2-2.8,3.7-3.7c1.7-0.8,3.7-1.3,5.9-1.3c2.7,0,4.9,0.5,6.7,1.5c1.8,1,3,2.4,3.7,4.1s1.1,4.1,1.1,7.2
			L203.2,81.3L203.2,81.3z M193.5,76.2v-2.3c0-1.6-0.1-2.7-0.3-3.2c-0.2-0.5-0.5-0.7-1.1-0.7c-0.7,0-1.1,0.2-1.2,0.6
			s-0.2,1.5-0.2,3.3v2.3H193.5z"/>
		<path class="st1" d="M216.2,64.9l-0.2,2.8c0.9-1.1,1.8-2,2.9-2.5c1-0.6,2.2-0.8,3.4-0.8c1.5,0,2.8,0.4,3.9,1.2s1.8,1.7,2,2.8
			c0.3,1.1,0.4,2.8,0.4,5.4v13.4c0,2.9-0.2,4.9-0.5,6.2c-0.3,1.2-1,2.2-2.1,2.9c-1.1,0.7-2.3,1.1-3.8,1.1c-1.2,0-2.3-0.3-3.3-0.8
			c-1-0.6-1.9-1.4-2.8-2.5v7.3h-9.7V64.9H216.2z M219,74.1c0-2-0.1-3.2-0.2-3.6c-0.1-0.4-0.5-0.6-1.2-0.6c-0.6,0-1.1,0.2-1.2,0.7
			s-0.3,1.6-0.3,3.5v13.2c0,1.9,0.1,3.1,0.3,3.6s0.6,0.7,1.2,0.7c0.6,0,1-0.2,1.2-0.7c0.1-0.4,0.2-1.5,0.2-3.2L219,74.1L219,74.1z"
			/>
	</g>
</g>
</svg>
